<?xml version="1.0" encoding="UTF-8" standalone="no"?>
<svg
   inkscape:version="1.1 (c68e22c387, 2021-05-23)"
   sodipodi:docname="panda-icon.svg"
   id="svg60"
   version="1.1"
   height="128"
   width="128"
   xmlns:inkscape="http://www.inkscape.org/namespaces/inkscape"
   xmlns:sodipodi="http://sodipodi.sourceforge.net/DTD/sodipodi-0.dtd"
   xmlns="http://www.w3.org/2000/svg"
   xmlns:svg="http://www.w3.org/2000/svg"
   xmlns:rdf="http://www.w3.org/1999/02/22-rdf-syntax-ns#"
   xmlns:cc="http://creativecommons.org/ns#"
   xmlns:dc="http://purl.org/dc/elements/1.1/">
  <metadata
     id="metadata66">
    <rdf:RDF>
      <cc:Work
         rdf:about="">
        <dc:format>image/svg+xml</dc:format>
        <dc:type
           rdf:resource="http://purl.org/dc/dcmitype/StillImage" />
      </cc:Work>
    </rdf:RDF>
  </metadata>
  <defs
     id="defs64" />
  <sodipodi:namedview
     inkscape:current-layer="svg60"
     inkscape:window-maximized="1"
     inkscape:window-y="-9"
     inkscape:window-x="-9"
     inkscape:cy="75.755674"
     inkscape:cx="99.238804"
     inkscape:zoom="4.4287112"
     showgrid="false"
     id="namedview62"
     inkscape:window-height="1001"
     inkscape:window-width="1920"
     inkscape:pageshadow="2"
     inkscape:pageopacity="0"
     guidetolerance="10"
     gridtolerance="10"
     objecttolerance="10"
     borderopacity="1"
     bordercolor="#666666"
     pagecolor="#ffffff"
     inkscape:pagecheckerboard="0" />
  <g
     id="g16"
     fill="#778cff">
    <path
       id="path2"
       d="M97.137 61.607c3.97 3.141.675 13.543 2.462 19.802 1.786 6.259 8.003 17.34 8.003 17.34s-15.106-8.587-18.674-15.185c-3.567-6.6-5.44-16.763-2.154-20.828 3.285-4.066 6.392-4.27 10.363-1.129zM38.773 61.128c-3.971 3.141-.676 13.543-2.463 19.802-1.786 6.258-8.003 17.34-8.003 17.34s15.107-8.587 18.674-15.186 5.44-16.762 2.154-20.828c-3.285-4.065-6.392-4.27-10.362-1.128z" />
    <path
       id="path4"
       d="M94.264 77.039c3.97 3.141.676 13.543 2.462 19.802 1.787 6.258 8.003 17.34 8.003 17.34s-15.106-8.587-18.673-15.186c-3.567-6.598-5.44-16.762-2.155-20.828 3.285-4.065 6.392-4.27 10.363-1.128z" />
    <path
       id="path6"
       d="M97.137 70.966c3.97 3.141.675 13.543 2.462 19.802 1.786 6.258 8.003 17.34 8.003 17.34S92.496 99.52 88.928 92.921c-3.567-6.598-5.44-16.762-2.154-20.827 3.285-4.066 6.392-4.27 10.363-1.129zM52.416 16.197c-1.39-3.773-9.668-2.755-14.467-4.617-4.799-1.863-14.262-6.567-14.262-6.567s3.09 7.515 7.08 10.979c3.99 3.463 12.526 9.118 16.929 7.797 4.402-1.32 6.11-3.819 4.72-7.592zM68.194 20.004c1.28-5.21 8.496-7.891 13.851-8.193 7.205-.405 14.449 3.966 19.75 8.86 5.332 4.921 5.464 13.83 10.466 19.084 2.546 2.674 5.926 4.66 9.44 5.797 1.517.49 4.77.359 4.77.359s-5.64 3.008-8.72 3.694c-3.141.698-6.474.903-9.645.359-4.441-.762-8.572-2.895-12.569-4.976-7.105-3.7-14.474-7.492-20.058-13.236-3.212-3.304-8.383-7.273-7.285-11.748zM41.645 77.039c-3.97 3.141-.675 13.543-2.462 19.802-1.787 6.258-8.003 17.34-8.003 17.34s15.106-8.587 18.673-15.186c3.568-6.598 5.44-16.762 2.155-20.828-3.285-4.065-6.392-4.27-10.363-1.128z" />
    <path
       id="path8"
       d="M38.773 70.966c-3.971 3.141-.676 13.543-2.463 19.802-1.786 6.258-8.003 17.34-8.003 17.34s15.107-8.587 18.674-15.186c3.567-6.598 5.44-16.762 2.154-20.827-3.285-4.066-6.392-4.27-10.362-1.129zM78.91 19.06s-13.62-6.038-22.78-4.063c-9.16 1.976-21.434 10.273-27.278 18.718-5.845 8.446-4.213 19.787-6.82 27.714-2.608 7.927-8.27 19.879-8.27 19.879S27.2 71.846 34.22 64.62c7.02-7.225 13.649-22.918 20.75-26.988 7.1-4.07 14.944-1.887 14.944-1.887" />
    <path
       id="path10"
       d="M68.014 12.57c-1.39-3.774-9.668.872-14.467-.99-4.799-1.863-14.261-6.567-14.261-6.567s3.089 7.515 7.079 10.979c3.99 3.463 12.527 9.118 16.93 7.797 4.402-1.32 6.108-7.446 4.719-11.22zM103.894 43.232c3.956.72 4.377 9.05 7.037 13.456 2.66 4.407 8.922 12.92 8.922 12.92s-7.934-1.751-12.032-5.086c-4.099-3.335-11.138-10.771-10.594-15.335.544-4.564 2.711-6.675 6.667-5.955z" />
    <path
       id="path12"
       d="M107.108 55.23c3.676 1.63 2.127 9.826 3.676 14.735 1.55 4.908 5.635 14.654 5.635 14.654s-7.3-3.566-10.5-7.771-8.293-13.088-6.691-17.396c1.601-4.309 4.204-5.85 7.88-4.221zM76.673 45.785S85.52 50.19 90.13 55.909c4.612 5.718 9.058 14.29 11.39 24.739 2.333 10.449-3.084 17.248-1.197 25.15 1.887 7.902 6.711 17.189 6.711 17.189s-12.569-6.345-16.468-15.786c-3.9-9.441-.629-25.856-4.063-34.388-3.435-8.533-11.337-11.256-12.406-16.396-1.069-5.14 2.576-10.632 2.576-10.632z" />
    <path
       id="path14"
       d="M85.97 42.152s-14.762-2.024-23.014 2.415c-8.253 4.44-17.744 15.814-21.017 25.55-3.273 9.735 1.441 20.178 1.135 28.518-.307 8.34-2.433 21.392-2.433 21.392S50.93 107.21 55.67 98.321c4.741-8.889 6.756-25.805 12.45-31.684 5.693-5.88 13.835-9.223 13.835-9.223" />
  </g>
  <g
     id="g22"
     stroke-linejoin="round"
     stroke-linecap="round"
     stroke-width="5"
     stroke="#262626">
    <path
       id="path18"
       stroke-width="4.7044"
       fill="#262626"
       d="M 50.444,33.715 A 15.945,15.945 0 0 1 34.5,49.66 15.945,15.945 0 0 1 18.555,33.715 15.945,15.945 0 0 1 34.499,17.77 15.945,15.945 0 0 1 50.444,33.715 Z m 67.337,0 A 15.945,15.945 0 0 1 101.836,49.66 15.945,15.945 0 0 1 85.891,33.715 15.945,15.945 0 0 1 101.836,17.77 15.945,15.945 0 0 1 117.781,33.715 Z"
       style="fill:#fefefe;fill-opacity:1;stroke-width:10;stroke-miterlimit:4;stroke-dasharray:none" />
    <path
       id="path20"
       stroke-width="4.7044"
       fill="#ffffff"
       d="m 110.381,69.192 c 0,13.528899 -9.24059,23.598257 -18.733362,30.648894 C 83.826094,105.65025 76.594667,109.664 67.587,109.664 58.709538,109.664 51.065207,104.83957 43.561814,99.187994 34.211556,92.145358 25.954,82.882029 25.954,69.192 c 0,-24.676 15.434,-48.888 41.633,-48.888 26.199,0 42.794,24.212 42.794,48.888 z"
       sodipodi:nodetypes="sssssss"
       style="fill:#fefefe;fill-opacity:1;stroke:none;stroke-width:2;stroke-miterlimit:4;stroke-dasharray:none" />
  </g>
  <path
     style="fill:none;stroke:#cacaca;stroke-width:5;stroke-linecap:round;stroke-linejoin:round;stroke-miterlimit:4;stroke-dasharray:none;stroke-opacity:1"
     d="M 117.37235,49.184372 109.4774,39.084837"
     id="path13016"
     sodipodi:nodetypes="cc" />
  <g
     id="g44"
     transform="matrix(0.94088,0,0,0.94088,7.377,3.68)">
    <g
       id="g28"
       fill="#262626"
       font-family="sans-serif"
       font-weight="400"
       color="#000000"
       stroke-width="5">
      <path
         id="path24"
         style="line-height:normal;font-variant-ligatures:normal;font-variant-position:normal;font-variant-caps:normal;font-variant-numeric:normal;font-variant-alternates:normal;font-variant-east-asian:normal;font-feature-settings:normal;font-variation-settings:normal;text-indent:0;text-align:start;text-decoration:none;text-decoration-line:none;text-decoration-style:solid;text-decoration-color:#000000;text-transform:none;text-orientation:mixed;white-space:normal;shape-padding:0;shape-margin:0;inline-size:0;isolation:auto;mix-blend-mode:normal;solid-color:#000000;solid-opacity:1;stroke-width:4.7044"
         d="m 88.544922,53.451172 c -3.248231,3.93e-4 -6.553858,0.982264 -9.169922,2.847656 -2.615646,1.865765 -4.558594,4.759108 -4.558594,8.269531 0,2.004075 0.843989,4.049951 2.060547,6.216797 1.214676,2.167788 2.855607,4.414368 4.6875,6.482422 1.831893,2.067113 3.847702,3.951092 5.857422,5.365234 2.010661,1.413202 3.987632,2.435547 6.082031,2.435547 3.571581,0 6.874884,-2.005408 9.343754,-4.697265 2.46887,-2.691858 4.18554,-6.146995 4.18554,-9.636719 0,-3.98839 -3.12188,-7.886224 -6.77343,-11.220703 -3.651891,-3.333923 -7.846414,-6.06159 -11.712895,-6.0625 z"
         transform="matrix(1.0628348,0,0,1.0628348,-7.8405323,-3.911232)" />
    </g>
    <g
       id="g36"
       fill="#262626"
       font-family="sans-serif"
       font-weight="400"
       color="#000000"
       stroke-width="5">
      <path
         id="path32"
         style="line-height:normal;font-variant-ligatures:normal;font-variant-position:normal;font-variant-caps:normal;font-variant-numeric:normal;font-variant-alternates:normal;font-variant-east-asian:normal;font-feature-settings:normal;font-variation-settings:normal;text-indent:0;text-align:start;text-decoration:none;text-decoration-line:none;text-decoration-style:solid;text-decoration-color:#000000;text-transform:none;text-orientation:mixed;white-space:normal;shape-padding:0;shape-margin:0;inline-size:0;isolation:auto;mix-blend-mode:normal;solid-color:#000000;solid-opacity:1;stroke-width:4.7044"
         d="m 47.789062,53.451172 c -3.867016,0 -8.058441,2.728021 -11.710937,6.0625 -3.651555,3.334479 -6.777344,7.232313 -6.777344,11.220703 0,3.490665 1.718631,6.94392 4.1875,9.636719 2.468869,2.690917 5.77217,4.697265 9.34375,4.697265 2.094399,0 4.073324,-1.022345 6.083985,-2.435547 2.009719,-1.413201 4.023575,-3.298121 5.855468,-5.365234 1.831894,-2.068054 3.47579,-4.314634 4.691407,-6.482422 1.215617,-2.166846 2.05664,-4.212722 2.05664,-6.216797 0,-3.510423 -1.9449,-6.402825 -4.560547,-8.269531 -2.616587,-1.864824 -5.921063,-2.847656 -9.169922,-2.847656 z"
         transform="matrix(1.0628348,0,0,1.0628348,-7.8405323,-3.911232)" />
    </g>
    <g
       style="fill:#eeeeee;fill-opacity:1"
       id="g893"
       transform="matrix(1,0,0,1.6467054,0,-38.581797)" />
    <path
       id="path42"
       fill="#262626"
       d="m 74.442937,82.116018 c 0,4.389746 -6.466162,8.720263 -9.831937,8.63142 -3.365775,-0.0877 -9.831937,-4.241674 -9.831937,-8.63142 0,-4.390885 4.401136,-6.520834 9.831937,-6.520834 5.429662,0 9.831937,2.129949 9.831937,6.520834 z"
       style="stroke-width:1.13901" />
    <g
       id="g3866"
       transform="translate(0.7403025,2.4598707)">
      <path
         style="fill:none;stroke:#262626;stroke-width:2.12567;stroke-linecap:round;stroke-linejoin:round;stroke-miterlimit:4;stroke-dasharray:none;stroke-opacity:1"
         d="m 55.171748,98.133992 c 0,0 1.545464,1.474867 4.612308,1.449822 1.912437,-0.01562 4.086641,-1.846729 4.086641,-1.846729 0,0 2.458753,2.108835 4.844502,1.958722 3.173134,-0.199655 4.702932,-1.646677 4.702932,-1.646677"
         id="path2437"
         sodipodi:nodetypes="cscsc" />
    </g>
    <ellipse
       style="fill:#ffffff;fill-rule:evenodd;stroke:#262626;stroke-width:2.12567;stroke-linecap:round;stroke-linejoin:round;paint-order:stroke fill markers"
       id="path1542"
       cx="99.588783"
       cy="5.4218216"
       rx="1.4699227"
       ry="2.6398611"
       transform="rotate(50.297588)" />
  </g>
  <g
     id="g869"
     style="display:none"
     transform="matrix(1.2497553,0,0,1.2497553,-17.054154,-17.899766)"
     inkscape:label="eyes">
    <g
       id="g7496"
       style="fill:#000000;fill-opacity:1;stroke:#000000;stroke-opacity:1">
      <g
         id="path3754"
         transform="translate(2.1078057)">
        <path
           style="color:#000000;fill:#fefefe;fill-opacity:1;stroke:none;stroke-width:1px;stroke-linecap:round;stroke-linejoin:round;-inkscape-stroke:none"
           d="m 80.218329,61.855469 c -1.108101,-7.24e-4 -2.446886,0.0275 -3.625,0.40625 -1.178113,0.378755 -2.23717,1.201002 -2.478515,2.628906 -0.260366,1.540437 0.01472,3.471378 1.101562,5.064453 1.086847,1.593076 3.019901,2.800781 5.882813,2.800781 2.862911,0 4.796466,-1.207662 5.882812,-2.800781 1.086346,-1.593119 1.359956,-3.524126 1.099609,-5.064453 -0.137902,-0.815897 -0.541564,-1.457256 -1.085937,-1.902344 -0.544373,-0.445087 -1.212142,-0.705639 -1.90625,-0.867187 -1.388216,-0.323097 -2.924367,-0.261719 -3.990234,-0.261719 -0.265927,0 -0.563815,-0.0037 -0.88086,-0.0039 z"
           id="path1070" />
        <path
           style="color:#000000;fill:#fefefe;fill-opacity:1;stroke:none;stroke-width:1px;stroke-linecap:round;stroke-linejoin:round;-inkscape-stroke:none"
           d="m 50.188756,61.855469 c -1.108101,-7.24e-4 -2.446887,0.0275 -3.625,0.40625 -1.178114,0.378755 -2.237171,1.201002 -2.478516,2.628906 -0.260347,1.540327 0.01326,3.471334 1.099609,5.064453 1.086346,1.593119 3.019901,2.800781 5.882813,2.800781 2.862911,0 4.795966,-1.207705 5.882812,-2.800781 1.086847,-1.593075 1.361928,-3.524016 1.101563,-5.064453 -0.137913,-0.815953 -0.543326,-1.457276 -1.087891,-1.902344 -0.544564,-0.445068 -1.209962,-0.705647 -1.904297,-0.867187 -1.388668,-0.323081 -2.926319,-0.261719 -3.992187,-0.261719 -0.265927,0 -0.561861,-0.0037 -0.878906,-0.0039 z"
           id="path8241" />
      </g>
    </g>
    <g
       id="g1858"
       transform="translate(2.1078057)">
      <ellipse
         style="fill:#262626;fill-opacity:1;fill-rule:evenodd;stroke:none;stroke-width:1.26004;stroke-linecap:round;stroke-linejoin:round;paint-order:stroke fill markers"
         id="path882"
         cx="79.602371"
         cy="65.157219"
         rx="2.5436981"
         ry="5.1228218" />
      <ellipse
         style="fill:#262626;fill-opacity:1;fill-rule:evenodd;stroke:none;stroke-width:1.26004;stroke-linecap:round;stroke-linejoin:round;paint-order:stroke fill markers"
         id="ellipse1940"
         cx="52.84671"
         cy="65.157219"
         rx="2.543715"
         ry="5.1228218" />
    </g>
  </g>
  <path
     style="fill:#778cff;fill-opacity:1;stroke:none;stroke-width:1.06283px;stroke-linecap:butt;stroke-linejoin:miter;stroke-opacity:1"
     d="m 102.693,53.745737 c -3.143672,4.747471 -5.691975,11.40012 -10.319456,11.3994 4.39978,-2.554856 4.370113,-8.985477 3.719805,-15.95916 l 7.559601,-1.199937 z"
     id="path8348"
     sodipodi:nodetypes="ccccc" />
  <path
     id="path46"
     fill="#778cff"
     d="M75.21 34.658c-1.446 5.028.482 9.205 4.789 13.35 4.307 4.144 13.668 5.139 20.676 6.529 7.01 1.39 21.112 1.814 21.112 1.814s-11.833-7.001-16.178-10.303c-4.345-3.3-7.203-5.358-10.085-9.068-2.88-3.71-6.782-12.953-6.782-12.953S76.657 29.63 75.21 34.658z" />
  <path
     id="path48"
     fill="#778cff"
     d="M88.742 24.027S85.794 9.835 67.604 10.476 44.33 19.435 36.628 26.229c-7.702 6.795-8.84 18.196-13.276 25.265-4.435 7.07-12.803 17.31-12.803 17.31s15.318-5.956 23.868-11.284c8.55-5.327 18.753-18.97 26.624-21.215C68.91 34.06 76 38.064 76 38.064" />
  <path
     id="path50"
     fill="#778cff"
     d="M66.5 20.394s-14.76-2.024-23.013 2.415c-8.253 4.439-17.744 15.814-21.017 25.55-3.273 9.735 1.441 20.178 1.135 28.517-.307 8.34-2.433 21.393-2.433 21.393S31.46 85.451 36.2 76.563c4.741-8.889 6.756-25.805 12.45-31.685 5.693-5.88 13.835-9.222 13.835-9.222" />
  <path
     id="path52"
     fill="#778cff"
     d="M65.798 31.376c1.92 4.609-10.478 20.725-10.478 20.725s15.215-4.851 20.022-9.53c4.807-4.679 8.204-16.102 8.204-16.102s.699-5.762-4.204-7.216c-4.904-1.454-20.318 5.218-19.947 10.048.37 4.83 4.484-2.533 6.403 2.075zM88.742 24.027s8.846 4.405 13.457 10.123c4.611 5.719 9.057 14.29 11.39 24.74 2.333 10.449-3.084 17.247-1.197 25.15 1.886 7.902 6.711 17.188 6.711 17.188s-12.57-6.344-16.469-15.785c-3.9-9.441-.628-25.856-4.062-34.389-3.435-8.532-11.338-11.256-12.406-16.396-1.07-5.14 2.576-10.631 2.576-10.631z" />
  <path
     id="path54"
     fill="#778cff"
     d="M60.216 20.104c-3.56-4.85-15.312-.432-22.982 2.77-7.671 3.204-14.935 12.277-20.93 16.622-5.996 4.345-14.775 9.747-14.775 9.747s14.136 1.736 23.393-.82c9.256-2.558 24.625-10.746 29.959-16.52 5.333-5.773 8.894-6.948 5.335-11.799z" />
  <path
     id="path56"
     fill="#778cff"
     d="M68.322 26.138c-3.56-4.85-15.312-.432-22.983 2.77-7.67 3.204-14.935 12.276-20.93 16.622-5.996 4.345-14.775 9.747-14.775 9.747s14.136 1.736 23.393-.821c9.257-2.557 24.626-10.745 29.96-16.519 5.333-5.773 8.894-6.948 5.335-11.799zM86.654 29.525c3.33-2.255 9.461 3.398 14.446 4.683 4.985 1.284 15.415 2.98 15.415 2.98s-6.89 4.304-12.152 4.791c-5.26.488-15.493.106-18.3-3.534-2.807-3.64-2.737-6.664.591-8.92z" />
  <path
     id="path58"
     fill="#778cff"
     d="M80.105 33.615c1.755-3.618 9.892-1.787 14.851-3.167 4.96-1.38 14.84-5.128 14.84-5.128s-3.816 7.174-8.128 10.226c-4.312 3.053-13.365 7.839-17.616 6.09-4.25-1.749-5.702-4.403-3.947-8.02z" />
  <path
     style="fill:#262626;fill-opacity:1;stroke:#262626;stroke-width:1px;stroke-linecap:butt;stroke-linejoin:miter;stroke-opacity:1"
     d="m 42.550519,83.903556 c -1.886447,0.756309 -3.456308,3.849728 -3.432782,11.176496 -2.081745,-2.257894 -3.8608,-3.900358 -5.508415,-5.987408 0.09626,-3.95456 1.27914,-7.077168 3.273116,-10.617672 z"
     id="path2936"
     sodipodi:nodetypes="ccccc" />
  <path
     style="fill:#262626;fill-opacity:1;stroke:#262626;stroke-width:1px;stroke-linecap:butt;stroke-linejoin:miter;stroke-opacity:1"
     d="m 93.189923,83.903556 c 1.886447,0.756309 3.456308,3.969476 3.432782,11.296244 1.911782,-1.872228 3.798555,-3.653048 5.628165,-5.947492 -0.0963,-3.95456 -1.39889,-7.236832 -3.392866,-10.777336 z"
     id="path5430"
     sodipodi:nodetypes="ccccc" />
  <g
     id="g1705"
     transform="translate(0,2.9918411)"
     style="display:inline">
    <g
       id="g1869"
       transform="translate(-2.3952991)">
      <path
         style="fill:none;stroke:#ffffff;stroke-width:3;stroke-linecap:round;stroke-linejoin:round;stroke-miterlimit:4;stroke-dasharray:none;stroke-opacity:1"
         d="m 83.715101,66.215653 c 0,0 1.767916,-2.483793 6.378831,-2.483793 4.610916,0 6.548181,2.483793 6.548181,2.483793"
         id="path82"
         sodipodi:nodetypes="czc" />
      <path
         style="fill:none;stroke:#ffffff;stroke-width:3;stroke-linecap:round;stroke-linejoin:round;stroke-miterlimit:4;stroke-dasharray:none;stroke-opacity:1"
         d="m 44.482467,66.215653 c 0,0 1.767916,-2.483793 6.378831,-2.483793 4.610916,0 6.548181,2.483793 6.548181,2.483793"
         id="path1701"
         sodipodi:nodetypes="czc" />
    </g>
  </g>
  <path
     id="path6810"
     style="color:#000000;display:none;fill:#fefefe;fill-opacity:1;stroke-width:1.38113px;stroke-linecap:round;stroke-linejoin:round;-inkscape-stroke:none"
     d="m 155.95311,82.382725 c -0.0334,-0.06015 -0.0725,-0.115978 -0.11675,-0.168349 -0.35798,-0.422546 -1.07557,-0.590229 -1.95332,-0.464952 -0.87773,0.125295 -1.66655,0.326707 -2.92964,1.412346 -2.85475,2.452661 -11.71689,15.614815 -12.42541,15.162627 -0.70851,-0.452208 10.98609,-17.968589 11.38245,-18.635662 0.39633,-0.667091 1.21867,-2.303525 1.34754,-3.610527 0.12886,-1.306986 -0.1558,-2.332439 -0.89175,-2.764816 -0.3097,-0.181961 -0.59901,-0.206932 -0.98156,-0.111899 -0.38257,0.09498 -0.83607,0.33733 -1.29326,0.684302 -0.91432,0.694131 -1.88265,1.870239 -2.44953,2.637674 -0.56689,0.767435 -10.98808,19.12877 -11.58861,18.89085 -0.60053,-0.237917 5.85499,-13.463385 8.84956,-18.460939 0.38761,-0.638391 0.62341,-1.68071 0.55734,-2.614243 -0.0661,-0.933535 -0.41434,-1.699313 -0.9442,-2.033291 -0.5334,-0.336201 -1.41208,-0.330367 -2.29492,0.0075 -0.88283,0.337838 -1.70772,0.99728 -2.06683,1.621758 -3.46211,6.490759 -7.10016,12.768787 -9.26525,19.458132 -0.22382,0.690905 -0.40446,1.241391 -0.5468,1.6335 -0.0125,0.03429 -0.0221,0.05333 -0.0339,0.08508 0.70953,0.415521 2.52633,1.565493 3.84274,3.929496 1.66822,2.995758 2.86648,8.331268 2.86648,8.331268 0.0859,0.37069 -0.14442,0.74104 -0.51488,0.82805 -0.37185,0.0865 -0.74335,-0.1453 -0.82923,-0.51731 0,0 -1.27378,-5.35742 -2.72974,-7.971993 -1.35329,-2.4302 -3.83585,-3.753246 -3.83585,-3.753246 -0.0189,-0.02553 -0.0344,-0.05313 -0.0481,-0.08152 -0.14408,-0.107956 -0.24031,-0.267909 -0.26815,-0.445772 -0.0217,-0.02905 -0.0401,-0.06029 -0.0567,-0.09241 0,0 0.0291,-2.249788 -0.006,-4.794792 -0.0348,-2.545006 -0.15633,-5.459464 -0.37033,-6.475159 -0.16074,-0.762964 -0.4469,-1.832204 -0.85514,-2.713577 -0.40824,-0.88136 -0.94193,-1.49028 -1.38039,-1.608197 -1.02621,-0.275968 -1.87837,-0.07606 -2.51612,0.419059 -0.63778,0.495144 -1.07336,1.312999 -1.12195,2.379796 -0.10355,2.272882 0.0641,6.554512 0.0303,10.54422 -0.0169,1.994848 -0.0831,3.921986 -0.26631,5.524103 -0.18324,1.602098 -0.41124,2.861228 -1.07258,3.696858 -1.32223,1.67067 -1.60273,3.8212 -1.21027,5.93882 0.39251,2.11761 1.47937,4.16383 2.7464,5.44701 1.57924,1.59941 2.61799,2.81338 3.74521,3.60823 1.12721,0.79487 2.35904,1.23925 4.56049,1.31898 4.0836,0.14792 6.43366,-0.33315 9.35043,-3.07493 1.40075,-1.31671 3.02392,-3.67442 4.25869,-5.67992 0.77879,-1.27391 1.53418,-2.65296 2.29925,-3.9033 4.37754,-3.72195 7.94771,-7.637834 11.46398,-10.938511 0.67957,-0.587131 1.38046,-1.679326 1.69462,-2.738791 0.31416,-1.059475 0.24224,-1.991695 -0.25373,-2.520772 -0.28078,-0.299527 -0.81827,-0.380067 -1.53627,-0.207457 -0.71799,0.172608 -1.47232,0.655631 -1.97657,1.018672 -4.93834,3.555456 -12.0344,11.204509 -12.53102,10.841519 -0.49661,-0.363 8.80751,-10.730674 12.73249,-14.981611 0.53469,-0.577463 1.11536,-1.471238 1.40065,-2.304219 0.24964,-0.728865 0.269,-1.331506 0.0323,-1.751359 z"
     sodipodi:nodetypes="cczszzsssszzcsssccscscccsccccsssssssssssssscccsssszcscc"
     inkscape:label="hand" />
  <g
     id="g7714"
     transform="translate(1.693495)"
     style="display:inline">
    <path
       style="fill:#778cff;fill-opacity:1;stroke:none;stroke-width:0.999995px;stroke-linecap:butt;stroke-linejoin:miter;stroke-opacity:1"
       d="M 56.191913,48.883102 31.92295,69.16046 38.948175,44.891496 62.435154,29.805204 l 5.412248,7.422408 z"
       id="path6192"
       sodipodi:nodetypes="cccccc" />
    <path
       style="fill:#778cff;fill-opacity:1;stroke:none;stroke-width:0.999995px;stroke-linecap:butt;stroke-linejoin:miter;stroke-opacity:1"
       d="M 62.738146,42.815861 C 58.696115,58.52205 50.852562,66.245041 42.620453,73.152066 48.667498,62.721531 52.450088,50.50327 50.444,33.715 l 14.848775,-7.025227 2.235298,12.773139 z"
       id="path6062"
       sodipodi:nodetypes="cccccc" />
  </g>
</svg>
